<?xml version="1.0" encoding="UTF-8"?>
<!--
  匯東華官網 SVG Sprite 圖標集
  版本：v1.0
  建立日期：2026-01-29

  使用方式：
  <svg class="hdh-icon"><use href="./images/icons/sprite.svg#icon-name"></use></svg>
-->
<svg xmlns="http://www.w3.org/2000/svg" style="display: none;">

  <!-- icon-book：書本（學習） -->
  <symbol id="icon-book" viewBox="0 0 24 24" fill="none" stroke="currentColor" stroke-width="2" stroke-linecap="round" stroke-linejoin="round">
    <path d="M4 19.5A2.5 2.5 0 0 1 6.5 17H20"></path>
    <path d="M6.5 2H20v20H6.5A2.5 2.5 0 0 1 4 19.5v-15A2.5 2.5 0 0 1 6.5 2z"></path>
    <line x1="8" y1="7" x2="16" y2="7"></line>
    <line x1="8" y1="11" x2="14" y2="11"></line>
  </symbol>

  <!-- icon-chart：圖表（委託/分析） -->
  <symbol id="icon-chart" viewBox="0 0 24 24" fill="none" stroke="currentColor" stroke-width="2" stroke-linecap="round" stroke-linejoin="round">
    <line x1="18" y1="20" x2="18" y2="10"></line>
    <line x1="12" y1="20" x2="12" y2="4"></line>
    <line x1="6" y1="20" x2="6" y2="14"></line>
    <line x1="2" y1="20" x2="22" y2="20"></line>
  </symbol>

  <!-- icon-chat：對話（諮詢） -->
  <symbol id="icon-chat" viewBox="0 0 24 24" fill="none" stroke="currentColor" stroke-width="2" stroke-linecap="round" stroke-linejoin="round">
    <path d="M21 15a2 2 0 0 1-2 2H7l-4 4V5a2 2 0 0 1 2-2h14a2 2 0 0 1 2 2z"></path>
    <line x1="8" y1="9" x2="16" y2="9"></line>
    <line x1="8" y1="13" x2="14" y2="13"></line>
  </symbol>

  <!-- icon-analytics：統計分析 -->
  <symbol id="icon-analytics" viewBox="0 0 24 24" fill="none" stroke="currentColor" stroke-width="2" stroke-linecap="round" stroke-linejoin="round">
    <path d="M21.21 15.89A10 10 0 1 1 8 2.83"></path>
    <path d="M22 12A10 10 0 0 0 12 2v10z"></path>
  </symbol>

  <!-- icon-consulting：統計諮詢 -->
  <symbol id="icon-consulting" viewBox="0 0 24 24" fill="none" stroke="currentColor" stroke-width="2" stroke-linecap="round" stroke-linejoin="round">
    <path d="M17 21v-2a4 4 0 0 0-4-4H5a4 4 0 0 0-4 4v2"></path>
    <circle cx="9" cy="7" r="4"></circle>
    <path d="M23 21v-2a4 4 0 0 0-3-3.87"></path>
    <path d="M16 3.13a4 4 0 0 1 0 7.75"></path>
  </symbol>

  <!-- icon-course：課程 -->
  <symbol id="icon-course" viewBox="0 0 24 24" fill="none" stroke="currentColor" stroke-width="2" stroke-linecap="round" stroke-linejoin="round">
    <path d="M22 10v6M2 10l10-5 10 5-10 5z"></path>
    <path d="M6 12v5c0 2 2 3 6 3s6-1 6-3v-5"></path>
  </symbol>

  <!-- icon-data：數據清洗 -->
  <symbol id="icon-data" viewBox="0 0 24 24" fill="none" stroke="currentColor" stroke-width="2" stroke-linecap="round" stroke-linejoin="round">
    <ellipse cx="12" cy="5" rx="9" ry="3"></ellipse>
    <path d="M21 12c0 1.66-4 3-9 3s-9-1.34-9-3"></path>
    <path d="M3 5v14c0 1.66 4 3 9 3s9-1.34 9-3V5"></path>
  </symbol>

  <!-- icon-arrow-right：右箭頭 -->
  <symbol id="icon-arrow-right" viewBox="0 0 24 24" fill="none" stroke="currentColor" stroke-width="2" stroke-linecap="round" stroke-linejoin="round">
    <line x1="5" y1="12" x2="19" y2="12"></line>
    <polyline points="12 5 19 12 12 19"></polyline>
  </symbol>

  <!-- icon-arrow-down：下箭頭 -->
  <symbol id="icon-arrow-down" viewBox="0 0 24 24" fill="none" stroke="currentColor" stroke-width="2" stroke-linecap="round" stroke-linejoin="round">
    <line x1="12" y1="5" x2="12" y2="19"></line>
    <polyline points="19 12 12 19 5 12"></polyline>
  </symbol>

  <!-- icon-chevron-down：展開箭頭 -->
  <symbol id="icon-chevron-down" viewBox="0 0 24 24" fill="none" stroke="currentColor" stroke-width="2" stroke-linecap="round" stroke-linejoin="round">
    <polyline points="6 9 12 15 18 9"></polyline>
  </symbol>

  <!-- icon-menu：漢堡選單 -->
  <symbol id="icon-menu" viewBox="0 0 24 24" fill="none" stroke="currentColor" stroke-width="2" stroke-linecap="round" stroke-linejoin="round">
    <line x1="3" y1="12" x2="21" y2="12"></line>
    <line x1="3" y1="6" x2="21" y2="6"></line>
    <line x1="3" y1="18" x2="21" y2="18"></line>
  </symbol>

  <!-- icon-close：關閉 -->
  <symbol id="icon-close" viewBox="0 0 24 24" fill="none" stroke="currentColor" stroke-width="2" stroke-linecap="round" stroke-linejoin="round">
    <line x1="18" y1="6" x2="6" y2="18"></line>
    <line x1="6" y1="6" x2="18" y2="18"></line>
  </symbol>

  <!-- icon-search：搜尋 -->
  <symbol id="icon-search" viewBox="0 0 24 24" fill="none" stroke="currentColor" stroke-width="2" stroke-linecap="round" stroke-linejoin="round">
    <circle cx="11" cy="11" r="8"></circle>
    <line x1="21" y1="21" x2="16.65" y2="16.65"></line>
  </symbol>

  <!-- icon-phone：電話 -->
  <symbol id="icon-phone" viewBox="0 0 24 24" fill="none" stroke="currentColor" stroke-width="2" stroke-linecap="round" stroke-linejoin="round">
    <path d="M22 16.92v3a2 2 0 0 1-2.18 2 19.79 19.79 0 0 1-8.63-3.07 19.5 19.5 0 0 1-6-6 19.79 19.79 0 0 1-3.07-8.67A2 2 0 0 1 4.11 2h3a2 2 0 0 1 2 1.72 12.84 12.84 0 0 0 .7 2.81 2 2 0 0 1-.45 2.11L8.09 9.91a16 16 0 0 0 6 6l1.27-1.27a2 2 0 0 1 2.11-.45 12.84 12.84 0 0 0 2.81.7A2 2 0 0 1 22 16.92z"></path>
  </symbol>

  <!-- icon-mail：郵件 -->
  <symbol id="icon-mail" viewBox="0 0 24 24" fill="none" stroke="currentColor" stroke-width="2" stroke-linecap="round" stroke-linejoin="round">
    <path d="M4 4h16c1.1 0 2 .9 2 2v12c0 1.1-.9 2-2 2H4c-1.1 0-2-.9-2-2V6c0-1.1.9-2 2-2z"></path>
    <polyline points="22,6 12,13 2,6"></polyline>
  </symbol>

  <!-- icon-map-pin：地點 -->
  <symbol id="icon-map-pin" viewBox="0 0 24 24" fill="none" stroke="currentColor" stroke-width="2" stroke-linecap="round" stroke-linejoin="round">
    <path d="M21 10c0 7-9 13-9 13s-9-6-9-13a9 9 0 0 1 18 0z"></path>
    <circle cx="12" cy="10" r="3"></circle>
  </symbol>

  <!-- icon-clock：時間 -->
  <symbol id="icon-clock" viewBox="0 0 24 24" fill="none" stroke="currentColor" stroke-width="2" stroke-linecap="round" stroke-linejoin="round">
    <circle cx="12" cy="12" r="10"></circle>
    <polyline points="12 6 12 12 16 14"></polyline>
  </symbol>

  <!-- icon-facebook：Facebook -->
  <symbol id="icon-facebook" viewBox="0 0 24 24" fill="currentColor">
    <path d="M18 2h-3a5 5 0 0 0-5 5v3H7v4h3v8h4v-8h3l1-4h-4V7a1 1 0 0 1 1-1h3z"></path>
  </symbol>

  <!-- icon-line：LINE -->
  <symbol id="icon-line" viewBox="0 0 24 24" fill="currentColor">
    <path d="M19.365 9.863c.349 0 .63.285.63.631 0 .345-.281.63-.63.63H17.61v1.125h1.755c.349 0 .63.283.63.63 0 .344-.281.629-.63.629h-2.386c-.345 0-.627-.285-.627-.629V8.108c0-.345.282-.63.63-.63h2.386c.346 0 .627.285.627.63 0 .349-.281.63-.63.63H17.61v1.125h1.755zm-3.855 3.016c0 .27-.174.51-.432.596-.064.021-.133.031-.199.031-.211 0-.391-.09-.51-.25l-2.443-3.317v2.94c0 .344-.279.629-.631.629-.346 0-.626-.285-.626-.629V8.108c0-.27.173-.51.43-.595.06-.023.136-.033.194-.033.195 0 .375.105.495.254l2.462 3.33V8.108c0-.345.282-.63.63-.63.345 0 .63.285.63.63v4.771zm-5.741 0c0 .344-.282.629-.631.629-.345 0-.627-.285-.627-.629V8.108c0-.345.282-.63.63-.63.346 0 .628.285.628.63v4.771zm-2.466.629H4.917c-.345 0-.63-.285-.63-.629V8.108c0-.345.285-.63.63-.63.348 0 .63.285.63.63v4.141h1.756c.348 0 .629.283.629.63 0 .344-.282.629-.629.629M24 10.314C24 4.943 18.615.572 12 .572S0 4.943 0 10.314c0 4.811 4.27 8.842 10.035 9.608.391.082.923.258 1.058.59.12.301.079.766.038 1.08l-.164 1.02c-.045.301-.24 1.186 1.049.645 1.291-.539 6.916-4.078 9.436-6.975C23.176 14.393 24 12.458 24 10.314"></path>
  </symbol>

  <!-- icon-external-link：外部連結 -->
  <symbol id="icon-external-link" viewBox="0 0 24 24" fill="none" stroke="currentColor" stroke-width="2" stroke-linecap="round" stroke-linejoin="round">
    <path d="M18 13v6a2 2 0 0 1-2 2H5a2 2 0 0 1-2-2V8a2 2 0 0 1 2-2h6"></path>
    <polyline points="15 3 21 3 21 9"></polyline>
    <line x1="10" y1="14" x2="21" y2="3"></line>
  </symbol>

  <!-- icon-check：勾選 -->
  <symbol id="icon-check" viewBox="0 0 24 24" fill="none" stroke="currentColor" stroke-width="2" stroke-linecap="round" stroke-linejoin="round">
    <polyline points="20 6 9 17 4 12"></polyline>
  </symbol>

  <!-- icon-star：星星（評價） -->
  <symbol id="icon-star" viewBox="0 0 24 24" fill="currentColor">
    <polygon points="12 2 15.09 8.26 22 9.27 17 14.14 18.18 21.02 12 17.77 5.82 21.02 7 14.14 2 9.27 8.91 8.26 12 2"></polygon>
  </symbol>

  <!-- icon-quote：引號（見證） -->
  <symbol id="icon-quote" viewBox="0 0 24 24" fill="currentColor">
    <path d="M6 17h3l2-4V7H5v6h3zm8 0h3l2-4V7h-6v6h3z"></path>
  </symbol>

  <!-- icon-play：播放 -->
  <symbol id="icon-play" viewBox="0 0 24 24" fill="currentColor">
    <polygon points="5 3 19 12 5 21 5 3"></polygon>
  </symbol>

  <!-- icon-calendar：行事曆 -->
  <symbol id="icon-calendar" viewBox="0 0 24 24" fill="none" stroke="currentColor" stroke-width="2" stroke-linecap="round" stroke-linejoin="round">
    <rect x="3" y="4" width="18" height="18" rx="2" ry="2"></rect>
    <line x1="16" y1="2" x2="16" y2="6"></line>
    <line x1="8" y1="2" x2="8" y2="6"></line>
    <line x1="3" y1="10" x2="21" y2="10"></line>
  </symbol>

  <!-- icon-user：使用者 -->
  <symbol id="icon-user" viewBox="0 0 24 24" fill="none" stroke="currentColor" stroke-width="2" stroke-linecap="round" stroke-linejoin="round">
    <path d="M20 21v-2a4 4 0 0 0-4-4H8a4 4 0 0 0-4 4v2"></path>
    <circle cx="12" cy="7" r="4"></circle>
  </symbol>

</svg>
